<svg width="460" height="14" viewBox="0 0 460 14" fill="none" xmlns="http://www.w3.org/2000/svg">
<path d="M0.15625 0.789062H2.85938L6.17188 8.67188L6.9375 10.5781L7.53906 8.67188L8.75781 5.79688L6.5625 0.789062H9.10938L10.0078 3.17188L10.8438 0.789062H13.3906L11.1953 5.79688L12.4375 8.73438L13.1875 10.5781L13.7656 8.70312L17.0938 0.789062H19.7969L14.4062 13H11.9531L10.8672 10.5781L9.98438 8.22656L9.10156 10.5781L8 13H5.54688L0.15625 0.789062ZM21.6797 0.789062H24.1562V3.97656H31.75V0.789062H34.2344V13H31.75V6.09375H24.1562V13H21.6797V0.789062ZM37.7031 0.789062H48.1016V2.96094H40.1797V5.39844H47.1953V7.4375H40.1797V10.8359H48.2656V13H37.7031V0.789062ZM51.0156 0.789062H57.2266C58.1641 0.789062 58.9766 0.888021 59.6641 1.08594C60.3516 1.27865 60.9219 1.5599 61.375 1.92969C61.8281 2.29948 62.1641 2.75 62.3828 3.28125C62.6068 3.8125 62.7188 4.41406 62.7188 5.08594C62.7188 5.53906 62.6641 5.97135 62.5547 6.38281C62.4453 6.78906 62.276 7.16406 62.0469 7.50781C61.8229 7.85156 61.5391 8.15885 61.1953 8.42969C60.8516 8.69531 60.4479 8.91667 59.9844 9.09375L62.6406 13H59.6094L57.3125 9.53125H57.2422L53.4922 9.52344V13H51.0156V0.789062ZM57.2891 7.38281C57.7578 7.38281 58.1667 7.32812 58.5156 7.21875C58.8698 7.10938 59.1641 6.95573 59.3984 6.75781C59.638 6.5599 59.8151 6.32031 59.9297 6.03906C60.0495 5.7526 60.1094 5.4349 60.1094 5.08594C60.1094 4.40365 59.875 3.8776 59.4062 3.50781C58.9375 3.13281 58.2318 2.94531 57.2891 2.94531H53.4922V7.38281H57.2891ZM65.6562 0.789062H76.0547V2.96094H68.1328V5.39844H75.1484V7.4375H68.1328V10.8359H76.2188V13H65.6562V0.789062ZM87.9609 2.96094H83.4531V0.789062H94.9453V2.96094H90.4375V13H87.9609V2.96094ZM97.5859 0.789062H100.062V3.97656H107.656V0.789062H110.141V13H107.656V6.09375H100.062V13H97.5859V0.789062ZM113.609 0.789062H124.008V2.96094H116.086V5.39844H123.102V7.4375H116.086V10.8359H124.172V13H113.609V0.789062ZM132.234 0.789062H138.758C139.555 0.789062 140.247 0.875 140.836 1.04688C141.43 1.21354 141.922 1.44531 142.312 1.74219C142.703 2.03906 142.992 2.39323 143.18 2.80469C143.372 3.21094 143.469 3.65104 143.469 4.125C143.469 4.90104 143.224 5.58073 142.734 6.16406C143.297 6.4974 143.716 6.92969 143.992 7.46094C144.268 7.99219 144.406 8.59635 144.406 9.27344C144.406 9.84115 144.31 10.3542 144.117 10.8125C143.93 11.2708 143.641 11.6641 143.25 11.9922C142.865 12.3151 142.375 12.5651 141.781 12.7422C141.193 12.9141 140.497 13 139.695 13H132.234V0.789062ZM139.711 5.47656C139.924 5.47656 140.133 5.48438 140.336 5.5C140.685 5.16667 140.859 4.78646 140.859 4.35938C140.859 3.91667 140.685 3.57552 140.336 3.33594C139.992 3.09115 139.487 2.96875 138.82 2.96875H134.711V5.47656H139.711ZM139.758 10.8438C140.424 10.8438 140.93 10.7005 141.273 10.4141C141.622 10.1276 141.797 9.72396 141.797 9.20312C141.797 8.68229 141.622 8.27604 141.273 7.98438C140.93 7.69271 140.424 7.54688 139.758 7.54688H134.711V10.8438H139.758ZM146.922 0.789062H157.32V2.96094H149.398V5.39844H156.414V7.4375H149.398V10.8359H157.484V13H146.922V0.789062ZM160.805 9.36719C161.247 9.61719 161.695 9.84375 162.148 10.0469C162.607 10.2448 163.081 10.4141 163.57 10.5547C164.06 10.6901 164.573 10.7943 165.109 10.8672C165.651 10.9401 166.227 10.9766 166.836 10.9766C167.57 10.9766 168.195 10.9297 168.711 10.8359C169.227 10.737 169.646 10.6042 169.969 10.4375C170.297 10.2656 170.534 10.0625 170.68 9.82812C170.831 9.59375 170.906 9.33854 170.906 9.0625C170.906 8.61979 170.721 8.27083 170.352 8.01562C169.982 7.75521 169.411 7.625 168.641 7.625C168.302 7.625 167.945 7.64844 167.57 7.69531C167.195 7.73698 166.815 7.78385 166.43 7.83594C166.049 7.88802 165.672 7.9375 165.297 7.98438C164.927 8.02604 164.578 8.04688 164.25 8.04688C163.703 8.04688 163.177 7.97656 162.672 7.83594C162.172 7.69531 161.727 7.48438 161.336 7.20312C160.951 6.92188 160.643 6.57031 160.414 6.14844C160.185 5.72656 160.07 5.23438 160.07 4.67188C160.07 4.33854 160.115 4.00781 160.203 3.67969C160.297 3.35156 160.443 3.03906 160.641 2.74219C160.844 2.4401 161.104 2.16146 161.422 1.90625C161.74 1.64583 162.122 1.42188 162.57 1.23438C163.023 1.04688 163.544 0.901042 164.133 0.796875C164.727 0.6875 165.401 0.632812 166.156 0.632812C166.703 0.632812 167.253 0.664062 167.805 0.726562C168.357 0.783854 168.893 0.867188 169.414 0.976562C169.94 1.08594 170.445 1.21875 170.93 1.375C171.414 1.52604 171.865 1.69531 172.281 1.88281L171.195 3.88281C170.852 3.73177 170.482 3.59375 170.086 3.46875C169.69 3.33854 169.276 3.22656 168.844 3.13281C168.411 3.03906 167.964 2.96615 167.5 2.91406C167.042 2.85677 166.573 2.82812 166.094 2.82812C165.411 2.82812 164.849 2.8776 164.406 2.97656C163.969 3.07552 163.62 3.20312 163.359 3.35938C163.099 3.51042 162.917 3.68229 162.812 3.875C162.714 4.0625 162.664 4.25 162.664 4.4375C162.664 4.80208 162.828 5.10156 163.156 5.33594C163.484 5.5651 163.984 5.67969 164.656 5.67969C164.927 5.67969 165.237 5.66146 165.586 5.625C165.94 5.58333 166.31 5.53906 166.695 5.49219C167.086 5.44531 167.482 5.40365 167.883 5.36719C168.289 5.32552 168.682 5.30469 169.062 5.30469C169.781 5.30469 170.417 5.38542 170.969 5.54688C171.526 5.70833 171.992 5.9401 172.367 6.24219C172.742 6.53906 173.026 6.90104 173.219 7.32812C173.411 7.75 173.508 8.22396 173.508 8.75C173.508 9.45312 173.344 10.0807 173.016 10.6328C172.693 11.1797 172.229 11.6432 171.625 12.0234C171.026 12.3984 170.302 12.6849 169.453 12.8828C168.604 13.0755 167.659 13.1719 166.617 13.1719C165.93 13.1719 165.258 13.1276 164.602 13.0391C163.945 12.9557 163.315 12.8359 162.711 12.6797C162.112 12.5182 161.539 12.3281 160.992 12.1094C160.451 11.8854 159.948 11.6406 159.484 11.375L160.805 9.36719ZM179.914 2.96094H175.406V0.789062H186.898V2.96094H182.391V13H179.914V2.96094ZM194.844 0.789062H197.32L204.93 4.77344V0.789062H207.406V13H204.93V7.39844L197.32 3.4375V13H194.844V0.789062ZM210.859 0.789062H221.258V2.96094H213.336V5.39844H220.352V7.4375H213.336V10.8359H221.422V13H210.859V0.789062ZM222.594 0.789062H225.297L228.609 8.67188L229.375 10.5781L229.977 8.67188L231.195 5.79688L229 0.789062H231.547L232.445 3.17188L233.281 0.789062H235.828L233.633 5.79688L234.875 8.73438L235.625 10.5781L236.203 8.70312L239.531 0.789062H242.234L236.844 13H234.391L233.305 10.5781L232.422 8.22656L231.539 10.5781L230.438 13H227.984L222.594 0.789062ZM244.695 9.36719C245.138 9.61719 245.586 9.84375 246.039 10.0469C246.497 10.2448 246.971 10.4141 247.461 10.5547C247.951 10.6901 248.464 10.7943 249 10.8672C249.542 10.9401 250.117 10.9766 250.727 10.9766C251.461 10.9766 252.086 10.9297 252.602 10.8359C253.117 10.737 253.536 10.6042 253.859 10.4375C254.188 10.2656 254.424 10.0625 254.57 9.82812C254.721 9.59375 254.797 9.33854 254.797 9.0625C254.797 8.61979 254.612 8.27083 254.242 8.01562C253.872 7.75521 253.302 7.625 252.531 7.625C252.193 7.625 251.836 7.64844 251.461 7.69531C251.086 7.73698 250.706 7.78385 250.32 7.83594C249.94 7.88802 249.562 7.9375 249.188 7.98438C248.818 8.02604 248.469 8.04688 248.141 8.04688C247.594 8.04688 247.068 7.97656 246.562 7.83594C246.062 7.69531 245.617 7.48438 245.227 7.20312C244.841 6.92188 244.534 6.57031 244.305 6.14844C244.076 5.72656 243.961 5.23438 243.961 4.67188C243.961 4.33854 244.005 4.00781 244.094 3.67969C244.188 3.35156 244.333 3.03906 244.531 2.74219C244.734 2.4401 244.995 2.16146 245.312 1.90625C245.63 1.64583 246.013 1.42188 246.461 1.23438C246.914 1.04688 247.435 0.901042 248.023 0.796875C248.617 0.6875 249.292 0.632812 250.047 0.632812C250.594 0.632812 251.143 0.664062 251.695 0.726562C252.247 0.783854 252.784 0.867188 253.305 0.976562C253.831 1.08594 254.336 1.21875 254.82 1.375C255.305 1.52604 255.755 1.69531 256.172 1.88281L255.086 3.88281C254.742 3.73177 254.372 3.59375 253.977 3.46875C253.581 3.33854 253.167 3.22656 252.734 3.13281C252.302 3.03906 251.854 2.96615 251.391 2.91406C250.932 2.85677 250.464 2.82812 249.984 2.82812C249.302 2.82812 248.74 2.8776 248.297 2.97656C247.859 3.07552 247.51 3.20312 247.25 3.35938C246.99 3.51042 246.807 3.68229 246.703 3.875C246.604 4.0625 246.555 4.25 246.555 4.4375C246.555 4.80208 246.719 5.10156 247.047 5.33594C247.375 5.5651 247.875 5.67969 248.547 5.67969C248.818 5.67969 249.128 5.66146 249.477 5.625C249.831 5.58333 250.201 5.53906 250.586 5.49219C250.977 5.44531 251.372 5.40365 251.773 5.36719C252.18 5.32552 252.573 5.30469 252.953 5.30469C253.672 5.30469 254.307 5.38542 254.859 5.54688C255.417 5.70833 255.883 5.9401 256.258 6.24219C256.633 6.53906 256.917 6.90104 257.109 7.32812C257.302 7.75 257.398 8.22396 257.398 8.75C257.398 9.45312 257.234 10.0807 256.906 10.6328C256.583 11.1797 256.12 11.6432 255.516 12.0234C254.917 12.3984 254.193 12.6849 253.344 12.8828C252.495 13.0755 251.549 13.1719 250.508 13.1719C249.82 13.1719 249.148 13.1276 248.492 13.0391C247.836 12.9557 247.206 12.8359 246.602 12.6797C246.003 12.5182 245.43 12.3281 244.883 12.1094C244.341 11.8854 243.839 11.6406 243.375 11.375L244.695 9.36719ZM265.438 0.789062H271.648C272.586 0.789062 273.398 0.888021 274.086 1.08594C274.773 1.27865 275.344 1.5599 275.797 1.92969C276.25 2.29948 276.586 2.75 276.805 3.28125C277.029 3.8125 277.141 4.41406 277.141 5.08594C277.141 5.53906 277.086 5.97135 276.977 6.38281C276.867 6.78906 276.698 7.16406 276.469 7.50781C276.245 7.85156 275.961 8.15885 275.617 8.42969C275.273 8.69531 274.87 8.91667 274.406 9.09375L277.062 13H274.031L271.734 9.53125H271.664L267.914 9.52344V13H265.438V0.789062ZM271.711 7.38281C272.18 7.38281 272.589 7.32812 272.938 7.21875C273.292 7.10938 273.586 6.95573 273.82 6.75781C274.06 6.5599 274.237 6.32031 274.352 6.03906C274.471 5.7526 274.531 5.4349 274.531 5.08594C274.531 4.40365 274.297 3.8776 273.828 3.50781C273.359 3.13281 272.654 2.94531 271.711 2.94531H267.914V7.38281H271.711ZM279.766 0.789062H282.258V13H279.766V0.789062ZM285.992 9.36719C286.435 9.61719 286.883 9.84375 287.336 10.0469C287.794 10.2448 288.268 10.4141 288.758 10.5547C289.247 10.6901 289.76 10.7943 290.297 10.8672C290.839 10.9401 291.414 10.9766 292.023 10.9766C292.758 10.9766 293.383 10.9297 293.898 10.8359C294.414 10.737 294.833 10.6042 295.156 10.4375C295.484 10.2656 295.721 10.0625 295.867 9.82812C296.018 9.59375 296.094 9.33854 296.094 9.0625C296.094 8.61979 295.909 8.27083 295.539 8.01562C295.169 7.75521 294.599 7.625 293.828 7.625C293.49 7.625 293.133 7.64844 292.758 7.69531C292.383 7.73698 292.003 7.78385 291.617 7.83594C291.237 7.88802 290.859 7.9375 290.484 7.98438C290.115 8.02604 289.766 8.04688 289.438 8.04688C288.891 8.04688 288.365 7.97656 287.859 7.83594C287.359 7.69531 286.914 7.48438 286.523 7.20312C286.138 6.92188 285.831 6.57031 285.602 6.14844C285.372 5.72656 285.258 5.23438 285.258 4.67188C285.258 4.33854 285.302 4.00781 285.391 3.67969C285.484 3.35156 285.63 3.03906 285.828 2.74219C286.031 2.4401 286.292 2.16146 286.609 1.90625C286.927 1.64583 287.31 1.42188 287.758 1.23438C288.211 1.04688 288.732 0.901042 289.32 0.796875C289.914 0.6875 290.589 0.632812 291.344 0.632812C291.891 0.632812 292.44 0.664062 292.992 0.726562C293.544 0.783854 294.081 0.867188 294.602 0.976562C295.128 1.08594 295.633 1.21875 296.117 1.375C296.602 1.52604 297.052 1.69531 297.469 1.88281L296.383 3.88281C296.039 3.73177 295.669 3.59375 295.273 3.46875C294.878 3.33854 294.464 3.22656 294.031 3.13281C293.599 3.03906 293.151 2.96615 292.688 2.91406C292.229 2.85677 291.76 2.82812 291.281 2.82812C290.599 2.82812 290.036 2.8776 289.594 2.97656C289.156 3.07552 288.807 3.20312 288.547 3.35938C288.286 3.51042 288.104 3.68229 288 3.875C287.901 4.0625 287.852 4.25 287.852 4.4375C287.852 4.80208 288.016 5.10156 288.344 5.33594C288.672 5.5651 289.172 5.67969 289.844 5.67969C290.115 5.67969 290.424 5.66146 290.773 5.625C291.128 5.58333 291.497 5.53906 291.883 5.49219C292.273 5.44531 292.669 5.40365 293.07 5.36719C293.477 5.32552 293.87 5.30469 294.25 5.30469C294.969 5.30469 295.604 5.38542 296.156 5.54688C296.714 5.70833 297.18 5.9401 297.555 6.24219C297.93 6.53906 298.214 6.90104 298.406 7.32812C298.599 7.75 298.695 8.22396 298.695 8.75C298.695 9.45312 298.531 10.0807 298.203 10.6328C297.88 11.1797 297.417 11.6432 296.812 12.0234C296.214 12.3984 295.49 12.6849 294.641 12.8828C293.792 13.0755 292.846 13.1719 291.805 13.1719C291.117 13.1719 290.445 13.1276 289.789 13.0391C289.133 12.9557 288.503 12.8359 287.898 12.6797C287.299 12.5182 286.727 12.3281 286.18 12.1094C285.638 11.8854 285.135 11.6406 284.672 11.375L285.992 9.36719ZM301.422 0.789062H311.82V2.96094H303.898V5.39844H310.914V7.4375H303.898V10.8359H311.984V13H301.422V0.789062ZM315.305 9.36719C315.747 9.61719 316.195 9.84375 316.648 10.0469C317.107 10.2448 317.581 10.4141 318.07 10.5547C318.56 10.6901 319.073 10.7943 319.609 10.8672C320.151 10.9401 320.727 10.9766 321.336 10.9766C322.07 10.9766 322.695 10.9297 323.211 10.8359C323.727 10.737 324.146 10.6042 324.469 10.4375C324.797 10.2656 325.034 10.0625 325.18 9.82812C325.331 9.59375 325.406 9.33854 325.406 9.0625C325.406 8.61979 325.221 8.27083 324.852 8.01562C324.482 7.75521 323.911 7.625 323.141 7.625C322.802 7.625 322.445 7.64844 322.07 7.69531C321.695 7.73698 321.315 7.78385 320.93 7.83594C320.549 7.88802 320.172 7.9375 319.797 7.98438C319.427 8.02604 319.078 8.04688 318.75 8.04688C318.203 8.04688 317.677 7.97656 317.172 7.83594C316.672 7.69531 316.227 7.48438 315.836 7.20312C315.451 6.92188 315.143 6.57031 314.914 6.14844C314.685 5.72656 314.57 5.23438 314.57 4.67188C314.57 4.33854 314.615 4.00781 314.703 3.67969C314.797 3.35156 314.943 3.03906 315.141 2.74219C315.344 2.4401 315.604 2.16146 315.922 1.90625C316.24 1.64583 316.622 1.42188 317.07 1.23438C317.523 1.04688 318.044 0.901042 318.633 0.796875C319.227 0.6875 319.901 0.632812 320.656 0.632812C321.203 0.632812 321.753 0.664062 322.305 0.726562C322.857 0.783854 323.393 0.867188 323.914 0.976562C324.44 1.08594 324.945 1.21875 325.43 1.375C325.914 1.52604 326.365 1.69531 326.781 1.88281L325.695 3.88281C325.352 3.73177 324.982 3.59375 324.586 3.46875C324.19 3.33854 323.776 3.22656 323.344 3.13281C322.911 3.03906 322.464 2.96615 322 2.91406C321.542 2.85677 321.073 2.82812 320.594 2.82812C319.911 2.82812 319.349 2.8776 318.906 2.97656C318.469 3.07552 318.12 3.20312 317.859 3.35938C317.599 3.51042 317.417 3.68229 317.312 3.875C317.214 4.0625 317.164 4.25 317.164 4.4375C317.164 4.80208 317.328 5.10156 317.656 5.33594C317.984 5.5651 318.484 5.67969 319.156 5.67969C319.427 5.67969 319.737 5.66146 320.086 5.625C320.44 5.58333 320.81 5.53906 321.195 5.49219C321.586 5.44531 321.982 5.40365 322.383 5.36719C322.789 5.32552 323.182 5.30469 323.562 5.30469C324.281 5.30469 324.917 5.38542 325.469 5.54688C326.026 5.70833 326.492 5.9401 326.867 6.24219C327.242 6.53906 327.526 6.90104 327.719 7.32812C327.911 7.75 328.008 8.22396 328.008 8.75C328.008 9.45312 327.844 10.0807 327.516 10.6328C327.193 11.1797 326.729 11.6432 326.125 12.0234C325.526 12.3984 324.802 12.6849 323.953 12.8828C323.104 13.0755 322.159 13.1719 321.117 13.1719C320.43 13.1719 319.758 13.1276 319.102 13.0391C318.445 12.9557 317.815 12.8359 317.211 12.6797C316.612 12.5182 316.039 12.3281 315.492 12.1094C314.951 11.8854 314.448 11.6406 313.984 11.375L315.305 9.36719ZM339.727 2.96094H335.219V0.789062H346.711V2.96094H342.203V13H339.727V2.96094ZM348.641 6.85938C348.641 5.9375 348.81 5.09375 349.148 4.32812C349.487 3.5625 349.961 2.90625 350.57 2.35938C351.185 1.80729 351.919 1.38021 352.773 1.07812C353.633 0.776042 354.583 0.625 355.625 0.625C356.661 0.625 357.609 0.776042 358.469 1.07812C359.328 1.38021 360.062 1.80729 360.672 2.35938C361.286 2.90625 361.763 3.5625 362.102 4.32812C362.44 5.09375 362.609 5.9375 362.609 6.85938C362.609 7.78646 362.44 8.63802 362.102 9.41406C361.763 10.1849 361.286 10.849 360.672 11.4062C360.062 11.9635 359.328 12.3984 358.469 12.7109C357.609 13.0182 356.661 13.1719 355.625 13.1719C354.583 13.1719 353.633 13.0182 352.773 12.7109C351.919 12.3984 351.185 11.9635 350.57 11.4062C349.961 10.849 349.487 10.1849 349.148 9.41406C348.81 8.63802 348.641 7.78646 348.641 6.85938ZM351.117 6.85938C351.117 7.48958 351.229 8.05729 351.453 8.5625C351.682 9.06771 351.997 9.5 352.398 9.85938C352.805 10.2135 353.281 10.487 353.828 10.6797C354.38 10.8724 354.979 10.9688 355.625 10.9688C356.271 10.9688 356.867 10.8724 357.414 10.6797C357.966 10.487 358.443 10.2135 358.844 9.85938C359.245 9.5 359.56 9.06771 359.789 8.5625C360.018 8.05729 360.133 7.48958 360.133 6.85938C360.133 6.22917 360.018 5.66406 359.789 5.16406C359.56 4.66406 359.245 4.24219 358.844 3.89844C358.443 3.54948 357.966 3.28385 357.414 3.10156C356.867 2.91927 356.271 2.82812 355.625 2.82812C354.979 2.82812 354.38 2.91927 353.828 3.10156C353.281 3.28385 352.805 3.54948 352.398 3.89844C351.997 4.24219 351.682 4.66406 351.453 5.16406C351.229 5.66406 351.117 6.22917 351.117 6.85938ZM374.352 2.96094H369.844V0.789062H381.336V2.96094H376.828V13H374.352V2.96094ZM383.977 0.789062H386.453V3.97656H394.047V0.789062H396.531V13H394.047V6.09375H386.453V13H383.977V0.789062ZM400 0.789062H410.398V2.96094H402.477V5.39844H409.492V7.4375H402.477V10.8359H410.562V13H400V0.789062ZM422.305 2.96094H417.797V0.789062H429.289V2.96094H424.781V13H422.305V2.96094ZM431.219 6.85938C431.219 5.9375 431.388 5.09375 431.727 4.32812C432.065 3.5625 432.539 2.90625 433.148 2.35938C433.763 1.80729 434.497 1.38021 435.352 1.07812C436.211 0.776042 437.161 0.625 438.203 0.625C439.24 0.625 440.188 0.776042 441.047 1.07812C441.906 1.38021 442.641 1.80729 443.25 2.35938C443.865 2.90625 444.341 3.5625 444.68 4.32812C445.018 5.09375 445.188 5.9375 445.188 6.85938C445.188 7.78646 445.018 8.63802 444.68 9.41406C444.341 10.1849 443.865 10.849 443.25 11.4062C442.641 11.9635 441.906 12.3984 441.047 12.7109C440.188 13.0182 439.24 13.1719 438.203 13.1719C437.161 13.1719 436.211 13.0182 435.352 12.7109C434.497 12.3984 433.763 11.9635 433.148 11.4062C432.539 10.849 432.065 10.1849 431.727 9.41406C431.388 8.63802 431.219 7.78646 431.219 6.85938ZM433.695 6.85938C433.695 7.48958 433.807 8.05729 434.031 8.5625C434.26 9.06771 434.576 9.5 434.977 9.85938C435.383 10.2135 435.859 10.487 436.406 10.6797C436.958 10.8724 437.557 10.9688 438.203 10.9688C438.849 10.9688 439.445 10.8724 439.992 10.6797C440.544 10.487 441.021 10.2135 441.422 9.85938C441.823 9.5 442.138 9.06771 442.367 8.5625C442.596 8.05729 442.711 7.48958 442.711 6.85938C442.711 6.22917 442.596 5.66406 442.367 5.16406C442.138 4.66406 441.823 4.24219 441.422 3.89844C441.021 3.54948 440.544 3.28385 439.992 3.10156C439.445 2.91927 438.849 2.82812 438.203 2.82812C437.557 2.82812 436.958 2.91927 436.406 3.10156C435.859 3.28385 435.383 3.54948 434.977 3.89844C434.576 4.24219 434.26 4.66406 434.031 5.16406C433.807 5.66406 433.695 6.22917 433.695 6.85938ZM447.938 0.789062H454.375C455.312 0.789062 456.125 0.890625 456.812 1.09375C457.5 1.29688 458.07 1.59115 458.523 1.97656C458.977 2.35677 459.312 2.82292 459.531 3.375C459.755 3.92708 459.867 4.54948 459.867 5.24219C459.867 5.89323 459.758 6.49479 459.539 7.04688C459.32 7.59896 458.984 8.07812 458.531 8.48438C458.083 8.88542 457.516 9.20052 456.828 9.42969C456.141 9.65365 455.328 9.76562 454.391 9.76562L450.414 9.75781V13H447.938V0.789062ZM454.438 7.61719C454.906 7.61719 455.315 7.5625 455.664 7.45312C456.018 7.33854 456.312 7.17969 456.547 6.97656C456.786 6.76823 456.964 6.51823 457.078 6.22656C457.198 5.92969 457.258 5.60156 457.258 5.24219C457.258 4.51823 457.021 3.95573 456.547 3.55469C456.078 3.14844 455.375 2.94531 454.438 2.94531H450.414V7.61719H454.438Z" fill="#FAFD5D"/>
</svg>
